<svg id="Calque_2_-_copie" data-name="Calque 2 - copie" xmlns="http://www.w3.org/2000/svg" viewBox="0 0 256.32 49.54"><title>Logo_securigreffe_2018_couleur2</title><path d="M205.2,127.84v21.71a.37.37,0,0,1-.33.41h-6.42a.38.38,0,0,1-.33-.41V127.84a.39.39,0,0,1,.33-.42h6.42A.38.38,0,0,1,205.2,127.84Z" transform="translate(-78.81 -111.3)" style="fill:#1c246b"/><circle cx="122.85" cy="5.13" r="5.13" style="fill:#4696d7"/><path d="M213.72,147.11a12.7,12.7,0,0,1,0-16.25,9.75,9.75,0,0,1,7.45-3.15,7.69,7.69,0,0,1,6.9,3.73v-3a.41.41,0,0,1,.41-.41h4.72a.41.41,0,0,1,.41.41v21.7a10.9,10.9,0,0,1-2.77,7.71,10.12,10.12,0,0,1-7.79,3,13.56,13.56,0,0,1-8-2.08,7.74,7.74,0,0,1-3.29-5.46.41.41,0,0,1,.41-.47h4.72a.43.43,0,0,1,.38.26,4.25,4.25,0,0,0,1.88,2.06,7.23,7.23,0,0,0,3.68.85,5.06,5.06,0,0,0,3.71-1.46,5.94,5.94,0,0,0,1.49-4.4v-2.56a.41.41,0,0,0-.73-.25,7.59,7.59,0,0,1-6.21,3A9.64,9.64,0,0,1,213.72,147.11Zm12.58-3.37a7.28,7.28,0,0,0,0-9.47,5.7,5.7,0,0,0-8.14,0,6.34,6.34,0,0,0-1.72,4.72,6.43,6.43,0,0,0,1.74,4.75,5.63,5.63,0,0,0,8.12,0Z" transform="translate(-78.81 -111.3)" style="fill:#1c246b"/><path d="M246.71,128.44v3.47q2.1-4,6-4.19a.41.41,0,0,1,.43.42V133a.42.42,0,0,1-.41.41h-1a5.11,5.11,0,0,0-3.76,1.25c-.85.83-1.27,2.26-1.27,4.3v10.6a.41.41,0,0,1-.41.41h-4.77a.41.41,0,0,1-.41-.41V128.44a.41.41,0,0,1,.41-.41h4.77A.41.41,0,0,1,246.71,128.44Z" transform="translate(-78.81 -111.3)" style="fill:#1c246b"/><path d="M185.67,128.44v3.47q2.1-4,6-4.19a.42.42,0,0,1,.43.42V133a.42.42,0,0,1-.42.41h-1a5.14,5.14,0,0,0-3.77,1.25c-.84.83-1.26,2.26-1.26,4.3v10.6a.41.41,0,0,1-.41.41h-4.77a.41.41,0,0,1-.41-.41V128.44a.41.41,0,0,1,.41-.41h4.77A.41.41,0,0,1,185.67,128.44Z" transform="translate(-78.81 -111.3)" style="fill:#1c246b"/><path d="M268,150.3a10.4,10.4,0,0,1-7.81-3.11,11.33,11.33,0,0,1-3-8.22,11.16,11.16,0,0,1,3-8.19,10.58,10.58,0,0,1,7.85-3.07,10.9,10.9,0,0,1,7.9,3,10.62,10.62,0,0,1,3.09,8,14.52,14.52,0,0,1-.1,1.79.42.42,0,0,1-.41.35H263.3a.42.42,0,0,0-.41.46,5.14,5.14,0,0,0,1.53,3,5,5,0,0,0,3.53,1.3,4.6,4.6,0,0,0,4.16-2.18.39.39,0,0,1,.34-.19h5.23a.41.41,0,0,1,.38.56,9.66,9.66,0,0,1-3.49,4.55A11,11,0,0,1,268,150.3Zm3.66-16.56a5.19,5.19,0,0,0-3.58-1.31,4.93,4.93,0,0,0-3.51,1.31,5.31,5.31,0,0,0-1.6,3,.41.41,0,0,0,.4.5h9.45a.4.4,0,0,0,.4-.47A4.64,4.64,0,0,0,271.61,133.74Z" transform="translate(-78.81 -111.3)" style="fill:#1c246b"/><path d="M118.42,150.3a10.4,10.4,0,0,1-7.81-3.11,11.33,11.33,0,0,1-3-8.22,11.16,11.16,0,0,1,3-8.19,10.58,10.58,0,0,1,7.85-3.07,10.9,10.9,0,0,1,7.9,3,10.62,10.62,0,0,1,3.09,8,14.52,14.52,0,0,1-.1,1.79.42.42,0,0,1-.41.35H113.77a.41.41,0,0,0-.4.46,5.07,5.07,0,0,0,1.52,3,5,5,0,0,0,3.53,1.3,4.6,4.6,0,0,0,4.16-2.18.41.41,0,0,1,.35-.19h5.22a.41.41,0,0,1,.38.56,9.66,9.66,0,0,1-3.49,4.55A11,11,0,0,1,118.42,150.3Zm3.66-16.56a5.19,5.19,0,0,0-3.58-1.31,4.93,4.93,0,0,0-3.51,1.31,5.31,5.31,0,0,0-1.6,3,.41.41,0,0,0,.4.5h9.45a.42.42,0,0,0,.41-.47A4.69,4.69,0,0,0,122.08,133.74Z" transform="translate(-78.81 -111.3)" style="fill:#1c246b"/><path d="M294.38,128.44v3.74a.42.42,0,0,1-.41.41H291.3a.41.41,0,0,0-.41.41v16.57a.41.41,0,0,1-.41.41h-4.73a.41.41,0,0,1-.41-.41V133a.41.41,0,0,0-.41-.41h-1.55a.41.41,0,0,1-.41-.41v-3.74a.41.41,0,0,1,.41-.41h1.55a.41.41,0,0,0,.41-.41v-.82q0-4,2.1-5.78c1.34-1.16,3.4-1.77,6.2-1.82a.41.41,0,0,1,.42.41v3.86a.42.42,0,0,1-.4.41,3.25,3.25,0,0,0-2.06.66,3,3,0,0,0-.71,2.26v.82a.41.41,0,0,0,.41.41H294A.41.41,0,0,1,294.38,128.44Z" transform="translate(-78.81 -111.3)" style="fill:#1c246b"/><path d="M309.2,128.44v3.74a.42.42,0,0,1-.41.41h-2.67a.41.41,0,0,0-.41.41v16.57a.41.41,0,0,1-.41.41h-4.73a.41.41,0,0,1-.41-.41V133a.41.41,0,0,0-.41-.41H298.2a.41.41,0,0,1-.41-.41v-3.74a.41.41,0,0,1,.41-.41h1.55a.41.41,0,0,0,.41-.41v-.82q0-4,2.1-5.78c1.34-1.16,3.4-1.77,6.2-1.82a.41.41,0,0,1,.42.41v3.86a.42.42,0,0,1-.4.41,3.25,3.25,0,0,0-2.06.66,3,3,0,0,0-.71,2.26v.82a.41.41,0,0,0,.41.41h2.67A.41.41,0,0,1,309.2,128.44Z" transform="translate(-78.81 -111.3)" style="fill:#1c246b"/><path d="M323.9,150.3a10.4,10.4,0,0,1-7.81-3.11,11.33,11.33,0,0,1-3-8.22,11.16,11.16,0,0,1,3-8.19,10.58,10.58,0,0,1,7.85-3.07,10.9,10.9,0,0,1,7.9,3,10.62,10.62,0,0,1,3.09,8,14.52,14.52,0,0,1-.1,1.79.42.42,0,0,1-.41.35H319.25a.42.42,0,0,0-.41.46,5.14,5.14,0,0,0,1.53,3,5,5,0,0,0,3.53,1.3,4.6,4.6,0,0,0,4.16-2.18.39.39,0,0,1,.34-.19h5.23a.41.41,0,0,1,.38.56,9.66,9.66,0,0,1-3.49,4.55A11,11,0,0,1,323.9,150.3Zm3.66-16.56a5.19,5.19,0,0,0-3.58-1.31,4.93,4.93,0,0,0-3.51,1.31,5.31,5.31,0,0,0-1.6,3,.41.41,0,0,0,.4.5h9.45a.4.4,0,0,0,.4-.47A4.64,4.64,0,0,0,327.56,133.74Z" transform="translate(-78.81 -111.3)" style="fill:#1c246b"/><path d="M96.81,141a4.14,4.14,0,0,0-1.26-3.16,12.17,12.17,0,0,0-4.4-2.25,23.86,23.86,0,0,1-8.3-4.17A8.25,8.25,0,0,1,80,124.76a8.48,8.48,0,0,1,3.22-6.86,12.49,12.49,0,0,1,8.22-2.66,11.6,11.6,0,0,1,8.26,3,9.32,9.32,0,0,1,3.08,7.37l0,.14h-6a5,5,0,0,0-5.43-5.3,5.51,5.51,0,0,0-3.82,1.22,4,4,0,0,0-1.36,3.12,3.45,3.45,0,0,0,1.45,2.85,18.79,18.79,0,0,0,5,2.35,18.67,18.67,0,0,1,7.7,4.15,9.08,9.08,0,0,1,2.62,6.78,8.44,8.44,0,0,1-3.11,6.91,12.64,12.64,0,0,1-8.23,2.53,14,14,0,0,1-8.76-2.87,9.29,9.29,0,0,1-3.64-8l0-.14h6A5.51,5.51,0,0,0,87,143.75a7,7,0,0,0,4.68,1.42A5.71,5.71,0,0,0,95.48,144,3.87,3.87,0,0,0,96.81,141Z" transform="translate(-78.81 -111.3)" style="fill:#1c246b"/><path d="M142.48,145.72a3.52,3.52,0,0,0,2.54-.92,3.26,3.26,0,0,0,.95-2.45h5.37l.07.12A6.86,6.86,0,0,1,148.9,148a10.58,10.58,0,0,1-14-.86,11.82,11.82,0,0,1-2.65-8v-.61a11.92,11.92,0,0,1,2.64-8,9.38,9.38,0,0,1,7.56-3.12,9.22,9.22,0,0,1,6.54,2.31,7.68,7.68,0,0,1,2.41,6.08l0,.12H146a4.28,4.28,0,0,0-.93-2.82,3.15,3.15,0,0,0-2.58-1.13,3.46,3.46,0,0,0-3.32,1.82,10.07,10.07,0,0,0-1,4.7v.61a10,10,0,0,0,1,4.73A3.49,3.49,0,0,0,142.48,145.72Z" transform="translate(-78.81 -111.3)" style="fill:#1c246b"/><path d="M168.51,146.69a7.3,7.3,0,0,1-2.57,2.66,7.61,7.61,0,0,1-9-1.29c-1.3-1.48-2-3.78-2-6.9V127.91h5.91v13.32a5.67,5.67,0,0,0,.81,3.44,2.84,2.84,0,0,0,2.39,1.05,5.76,5.76,0,0,0,2.43-.46,4.07,4.07,0,0,0,1.67-1.35v-16h5.92v22H169Z" transform="translate(-78.81 -111.3)" style="fill:#1c246b"/><path d="M78.81,155.18v2.92a.37.37,0,0,0,.38.36H206.5a10.8,10.8,0,0,1-2.53-3.64H79.19A.37.37,0,0,0,78.81,155.18Z" transform="translate(-78.81 -111.3)" style="fill:#4696d7"/><path d="M334.77,154.82H239.68a13.65,13.65,0,0,1-2.35,3.46l-.18.18h97.62a.37.37,0,0,0,.37-.36v-2.92A.37.37,0,0,0,334.77,154.82Z" transform="translate(-78.81 -111.3)" style="fill:#4696d7"/><polygon points="35.51 10.9 45.44 5.34 45.94 9.7 35.97 14.84 35.51 10.9" style="fill:#1c246b"/></svg>